<?xml version="1.0" encoding="UTF-8"?>
<svg width="96px" height="96px" viewBox="0 0 96 96" version="1.1" xmlns="http://www.w3.org/2000/svg" xmlns:xlink="http://www.w3.org/1999/xlink">
    <!-- Generator: Sketch 50.2 (55047) - http://www.bohemiancoding.com/sketch -->
    <title>menu</title>
    <desc>Created with Sketch.</desc>
    <defs></defs>
    <g id="Page-1" stroke="none" stroke-width="1" fill="none" fill-rule="evenodd">
        <g id="menu">
            <path d="M48,0 C21.5317384,0 0,21.5317384 0,48 C0,74.4682616 21.5317384,96 48,96 C74.4682616,96 96,74.4682616 96,48 C96,21.5317384 74.4682616,0 48,0 Z" id="Shape" fill="#e0e2e6" fill-rule="nonzero"></path>
            <path d="M21.9997558,57.9997558 C16.4838866,57.9997558 12,53.5122071 12,48 C12,42.4877929 16.4838866,38.0002442 21.9997558,38.0002442 C27.5163574,38.0002442 32.0002442,42.4877929 32.0002442,48 C32.0002442,53.5122071 27.5163574,57.9997558 21.9997558,57.9997558 Z" id="Path" fill="#3d464d"></path>
            <path d="M48,57.9997558 C42.4841308,57.9997558 38.0002442,53.5122071 38.0002442,48 C38.0002442,42.4877929 42.4841308,38.0002442 48,38.0002442 C53.5158692,38.0002442 57.9997558,42.4877929 57.9997558,48 C57.9997558,53.5122071 53.5158692,57.9997558 48,57.9997558 Z" id="Path" fill="#3d464d"></path>
            <path d="M74.0002442,57.9997558 C68.4836426,57.9997558 63.9997558,53.5122071 63.9997558,48 C63.9997558,42.4877929 68.4836426,38.0002442 74.0002442,38.0002442 C79.5161134,38.0002442 84,42.4877929 84,48 C84,53.5122071 79.5161134,57.9997558 74.0002442,57.9997558 Z" id="Path" fill="#3d464d"></path>
        </g>
    </g>
</svg>
