<svg height="512pt" viewBox="0 0 512 512" width="512pt" xmlns="http://www.w3.org/2000/svg"><path fill="#fff" d="m150 91c0-33.085938-26.914062-60-60-60s-60 26.914062-60 60 26.914062 60 60 60 60-26.914062 60-60zm-60 30c-16.542969 0-30-13.457031-30-30s13.457031-30 30-30 30 13.457031 30 30-13.457031 30-30 30zm0 0"/><path fill="#fff" d="m241 271v181h121v60h150v-150h-150v60h-91v-151h91v60h150v-150h-150v60h-91v-151h91v60h150v-150h-150v60h-121v181h-61c0-49.472656-40.003906-90-90-90-49.625 0-90 40.375-90 90v30zm151 211v-38.785156l30 30 60-60v68.785156zm68.785156-90-38.785156 38.785156-19.394531-19.390625-10.605469 10.605469v-30zm-68.785156-91v-38.785156l30 30 60-60v68.785156zm68.785156-90-38.785156 38.785156-19.394531-19.390625-10.605469 10.605469v-30zm-68.785156-91v-38.785156l30 30 60-60v68.785156zm68.785156-90-38.785156 38.785156-19.394531-19.390625-10.605469 10.605469v-30zm-430.785156 211c0-33.085938 26.914062-60 60-60 33.1875 0 60 26.886719 60 60zm0 0"/></svg>