<?xml version="1.0" encoding="UTF-8"?>
<svg xmlns="http://www.w3.org/2000/svg" xmlns:xlink="http://www.w3.org/1999/xlink" width="64px" height="64px" viewBox="0 0 64 64" version="1.1">
<g id="surface180398">
<path style=" stroke:none;fill-rule:nonzero;fill:rgb(87.843137%,30.980392%,37.254902%);fill-opacity:1;" d="M 63.011719 32 C 63.011719 14.875 49.125 0.988281 32 0.988281 C 14.875 0.988281 0.988281 14.875 0.988281 32 C 0.988281 49.125 14.875 63.011719 32 63.011719 C 49.125 63.011719 63.011719 49.125 63.011719 32 Z M 63.011719 32 "/>
<path style=" stroke:none;fill-rule:nonzero;fill:rgb(100%,100%,100%);fill-opacity:1;" d="M 35.625 32 L 44.6875 21.476562 C 45.675781 20.324219 45.550781 18.601562 44.398438 17.601562 C 43.25 16.613281 41.523438 16.738281 40.539062 17.886719 L 32 27.800781 L 23.476562 17.898438 C 22.488281 16.75 20.75 16.625 19.601562 17.613281 C 18.449219 18.601562 18.324219 20.335938 19.3125 21.488281 L 28.375 32 L 19.3125 42.523438 C 18.324219 43.675781 18.449219 45.398438 19.601562 46.398438 C 20.113281 46.851562 20.75 47.0625 21.386719 47.0625 C 22.164062 47.0625 22.925781 46.738281 23.460938 46.113281 L 31.988281 36.210938 L 40.511719 46.113281 C 41.050781 46.738281 41.824219 47.0625 42.585938 47.0625 C 43.226562 47.0625 43.863281 46.851562 44.375 46.398438 C 45.523438 45.414062 45.648438 43.675781 44.664062 42.523438 Z M 35.625 32 "/>
</g>
</svg>
