<?xml version="1.0" encoding="iso-8859-1"?>
<!-- Generator: Adobe Illustrator 19.0.0, SVG Export Plug-In . SVG Version: 6.00 Build 0)  -->
<svg version="1.1" id="Capa_1" xmlns="http://www.w3.org/2000/svg" xmlns:xlink="http://www.w3.org/1999/xlink" x="0px" y="0px"
	 viewBox="0 0 505.186 505.186" style="enable-background:new 0 0 505.186 505.186;" xml:space="preserve">
<g>
	<polygon style="fill:#fff;" points="146.365,463.407 10.173,496.157 42.923,359.965 374.315,28.573 477.757,132.015 	"/>
	<g>
		<path style="fill:#fff;" d="M474.62,29.381C460.903,15.664,442.299,7.957,422.9,7.957c-19.399,0-38.003,7.706-51.72,21.424
			l103.44,103.438c13.717-13.717,21.423-32.32,21.423-51.719S488.337,43.097,474.62,29.381z"/>
		<path style="fill:#fff;" d="M142.844,463.024l-0.505-0.491l6.465-58.183l-58.185,6.464l6.465-58.185
			c0,0-50.082,5.565-55.297,6.145l-0.321,0.321L9.142,494.859L142.844,463.024z"/>
	</g>
	<g>
		<path style="fill:#007da6;" d="M9.141,504.001c-2.797-0.001-5.44-1.281-7.173-3.476c-1.734-2.195-2.367-5.062-1.72-7.783
			L32.57,356.975c0.391-1.647,1.231-3.152,2.429-4.348L364.713,22.913c1.714-1.715,4.04-2.679,6.464-2.679s4.75,0.964,6.464,2.679
			l103.447,103.446c1.715,1.714,2.679,4.04,2.679,6.464s-0.964,4.75-2.679,6.464L151.373,469.001
			c-1.196,1.197-2.702,2.038-4.348,2.429L11.257,503.751C10.564,503.919,9.854,504.003,9.141,504.001z M49.757,363.725
			L21.481,482.519l118.795-28.277l321.42-321.42l-90.518-90.517L49.757,363.725z"/>
		<path style="fill:#007da6;" d="M93.177,419.957c-4.852-0.004-8.856-3.798-9.122-8.643c-0.266-4.845,3.299-9.054,8.122-9.589
			l58.188-6.464c3.253-0.371,6.455,1.025,8.397,3.661c1.942,2.635,2.328,6.108,1.011,9.105c-1.317,2.997-4.135,5.062-7.39,5.413
			l-58.188,6.464C93.857,419.939,93.517,419.957,93.177,419.957L93.177,419.957z"/>
		<path style="fill:#007da6;" d="M9.141,504.001c-3.697-0.001-7.03-2.228-8.445-5.644c-1.415-3.416-0.633-7.348,1.981-9.963
			l29.759-29.759c3.577-3.532,9.334-3.513,12.888,0.041c3.554,3.554,3.572,9.311,0.04,12.888l-29.759,29.759
			C13.893,503.04,11.567,504.004,9.141,504.001z"/>
		<path style="fill:#007da6;" d="M474.623,144.287c-2.425,0.003-4.752-0.961-6.464-2.679L364.713,38.18
			c-1.715-1.714-2.679-4.04-2.679-6.464s0.964-4.75,2.679-6.464c32.155-32.089,84.22-32.089,116.375,0l0,0
			c32.131,32.131,32.131,84.226,0,116.357C479.375,143.326,477.049,144.29,474.623,144.287L474.623,144.287z M384.57,32.18
			l89.598,89.58c19.037-25.485,16.478-61.081-6.009-83.58l0,0C445.646,15.714,410.061,13.16,384.57,32.18z"/>
		<path style="fill:#007da6;" d="M422.9,193.68c-2.425,0.003-4.752-0.961-6.464-2.679L312.998,87.564
			c-3.57-3.57-3.57-9.358,0-12.929c3.57-3.57,9.358-3.57,12.929,0l103.437,103.437c2.614,2.615,3.396,6.547,1.981,9.963
			C429.93,191.451,426.598,193.679,422.9,193.68L422.9,193.68z"/>
		<path style="fill:#007da6;" d="M448.757,167.823c-2.425,0.003-4.752-0.961-6.464-2.679L338.856,61.707
			c-3.532-3.577-3.513-9.334,0.041-12.888c3.554-3.554,9.311-3.572,12.888-0.04l103.438,103.437
			c2.614,2.615,3.396,6.547,1.981,9.963C455.788,165.594,452.455,167.822,448.757,167.823L448.757,167.823z"/>
		<path style="fill:#007da6;" d="M99.65,361.769c-3.697-0.001-7.03-2.228-8.445-5.644c-1.415-3.416-0.633-7.348,1.981-9.963
			L300.07,139.287c3.57-3.57,9.358-3.57,12.929,0c3.57,3.57,3.57,9.358,0,12.929L106.114,359.091
			C104.402,360.808,102.075,361.772,99.65,361.769L99.65,361.769z"/>
		<path style="fill:#007da6;" d="M151.373,413.493c-3.697-0.001-7.03-2.228-8.445-5.644c-1.415-3.416-0.633-7.348,1.981-9.963
			l206.875-206.884c3.57-3.57,9.358-3.57,12.929,0c3.57,3.57,3.57,9.358,0,12.929L157.838,410.814
			C156.125,412.531,153.799,413.495,151.373,413.493L151.373,413.493z"/>
		<path style="fill:#007da6;" d="M9.141,504.001c-2.797-0.001-5.44-1.281-7.173-3.476c-1.734-2.195-2.367-5.062-1.72-7.783
			L32.57,356.975c0.391-1.647,1.231-3.152,2.429-4.348c1.568-1.574,3.599-2.607,5.795-2.946c5.214-0.571,55.286-6.143,55.286-6.143
			c2.758-0.288,5.501,0.675,7.473,2.625c1.963,1.964,2.929,4.713,2.625,7.473l-5.205,46.83l46.821-5.205
			c2.76-0.304,5.51,0.661,7.473,2.625c1.964,1.964,2.929,4.713,2.625,7.473l-6.268,56.429c0.151,1.125,0.081,2.268-0.205,3.366
			c-0.744,3.269-3.224,5.865-6.455,6.759L11.258,503.752C10.565,503.919,9.854,504.003,9.141,504.001z M48.936,367.18
			L21.481,482.519l112.411-26.768l4.562-41.054l-46.821,5.205c-2.76,0.304-5.51-0.661-7.473-2.625
			c-1.964-1.964-2.929-4.713-2.625-7.473l5.205-46.83C75.364,364.243,58.239,366.144,48.936,367.18z"/>
	</g>
</g>
</svg>
