<?xml version="1.0" encoding="UTF-8" standalone="yes"?>
<svg xmlns="http://www.w3.org/2000/svg" xmlns:xlink="http://www.w3.org/1999/xlink" width="48px" height="48px" viewBox="0 0 48 48" version="1.1" fill="#007da6">
<g id="surface201560">
    <path style=" stroke:none;fill-rule:evenodd;fill:#007da6;fill-opacity:1;" d="M 40 24 C 40 32.835938 32.835938 40 24 40 C 15.164062 40 8 32.835938 8 24 C 8 15.164062 15.164062 8 24 8 C 26.226562 8 28.335938 8.476562 30.265625 9.296875 L 25.257812 14.648438 L 40.242188 14.148438 L 38.96875 0 L 34.546875 4.71875 C 31.421875 3 27.828125 2 24 2 C 11.851562 2 2 11.851562 2 24 C 2 36.148438 11.851562 46 24 46 C 36.148438 46 46 36.148438 46 24 Z M 40 24 "/>
</g>
</svg>
