<?xml version="1.0" encoding="UTF-8"?>
<svg width="48px" height="48px" viewBox="0 0 48 48" version="1.1" xmlns="http://www.w3.org/2000/svg" xmlns:xlink="http://www.w3.org/1999/xlink">
    <defs></defs>
    <g id="icon-abort" stroke="none" stroke-width="1" fill="none" fill-rule="evenodd">
        <path d="M27.1819805,1.72613639 L46.2738636,20.8180195 C48.0312229,22.5753788 48.0312229,25.4246212 46.2738636,27.1819805 L27.1819805,46.2738636 C25.4246212,48.0312229 22.5753788,48.0312229 20.8180195,46.2738636 L1.72613639,27.1819805 C-0.0312229203,25.4246212 -0.0312229203,22.5753788 1.72613639,20.8180195 L20.8180195,1.72613639 C22.5753788,-0.0312229203 25.4246212,-0.0312229203 27.1819805,1.72613639 Z M27.0052038,2.96357326 C25.3454756,1.30384502 22.6545244,1.30384502 20.9947962,2.96357326 L2.96357326,20.9947962 C1.30384502,22.6545244 1.30384502,25.3454756 2.96357326,27.0052038 L20.9947962,45.0364267 C22.6545244,46.696155 25.3454756,46.696155 27.0052038,45.0364267 L45.0364267,27.0052038 C46.696155,25.3454756 46.696155,22.6545244 45.0364267,20.9947962 L27.0052038,2.96357326 Z" id="Combined-Shape" fill="#333333"></path>
        <path d="M34.3891,20.8326428 C33.4965649,20.1965923 32.6040298,20.8326428 32.2569328,21.2729854 L30.1247657,24.3553838 C30.1247657,24.3553838 29.7776687,24.9425073 29.0834747,24.7957264 C28.5380366,24.6978725 28.4884513,23.6214794 28.4884513,23.2789907 L29.3314011,14.3253572 C29.3314011,14.2275033 29.4305717,13.6893068 29.13306,13.2489641 C28.9347188,12.9554024 28.5876219,12.7596945 28.091769,12.7107676 C27.6950868,12.6618406 27.3479898,12.7596945 27.1000634,13.0043293 C26.5546252,13.4935989 26.5546252,14.3253572 26.5546252,14.4721381 L25.7116754,20.8326428 C25.7116754,20.8326428 25.6125049,21.6154741 25.1662373,21.6154741 C25.0670667,21.6154741 24.9678962,21.3708393 24.9183109,20.588008 C24.769555,19.2180531 24.1745316,12.221498 24.1249464,12.221498 C24.1249464,12.172571 24.0257758,11.5854475 23.529923,11.2429588 C23.182826,10.998324 22.7861437,10.9493971 22.2902909,11.047251 C21.0010735,11.2918858 20.9019029,12.6129137 21.0506588,13.2489641 L21.6952675,21.1751315 C21.6952675,21.1751315 21.7448527,21.713328 21.5960969,21.9090359 C21.5465116,21.9579628 21.4969263,22.0068898 21.3977558,22.0068898 C21.1002441,22.0558167 20.9514882,21.3708393 20.8027324,21.0283506 L18.7697357,14.2764303 C18.7697357,14.2764303 18.5713946,13.6893068 18.0259565,13.395745 C17.7284448,13.2489641 17.3813478,13.2489641 16.9846655,13.3468181 C15.6954482,13.7871607 16.3400569,15.842093 16.3400569,15.8910199 L17.8772006,22.2515246 C17.9267859,22.4472324 18.0755418,22.9854289 17.9267859,23.2789907 C17.8772006,23.3768446 17.8276154,23.4257716 17.7284448,23.4257716 C17.3813478,23.3768446 16.4392274,21.5665471 15.6954482,19.5116149 C15.6954482,19.5116149 15.497107,18.9734183 15.0012542,18.7777105 C14.6541572,18.6309296 14.2574749,18.6798566 13.8112074,18.8266374 C13.4145251,18.9734183 13.1665987,19.2669801 13.0674281,19.6094688 C12.869087,20.1965923 13.1665987,20.7837158 13.216184,20.9304967 L16.4888127,31.0094502 C16.4888127,31.0583772 17.6788595,35.0703878 22.0919497,35.9021461 C22.488632,35.951073 23.6290935,36 23.9761905,36 C27.7942573,36 29.7776687,32.2326242 29.7776687,32.1836972 L34.7857823,23.0343559 C35.0337087,22.5450863 35.2320498,21.4686932 34.3891,20.8326428 Z" id="Shape" fill="#333333" fill-rule="nonzero"></path>
    </g>
</svg>
