<?xml version="1.0" encoding="UTF-8"?>
<svg width="48px" height="48px" viewBox="0 0 48 48" version="1.1" xmlns="http://www.w3.org/2000/svg" xmlns:xlink="http://www.w3.org/1999/xlink">
    <defs>
      <linearGradient id="grad2" x1="100%" y1="0%" x2="50%" y2="100%">
        <stop offset="0%" style="stop-color:#fff;stop-opacity:1" />
        <stop offset="100%" style="stop-color:#AF8BBA;stop-opacity:1" />
      </linearGradient>
    </defs>
    <g id="Page-1-Copy" stroke="none" stroke-width="1" fill="none" fill-rule="evenodd">
        <g id="icon-await">
            <g id="noun_fork_60030" transform="translate(24.000000, 24.000000) rotate(90.000000) translate(-24.000000, -24.000000) translate(-2.000000, -2.000000)" fill="url(#grad2)" stroke="#AF8BBA">
                <rect id="Rectangle-33" transform="translate(25.955844, 26.044156) rotate(45.000000) translate(-25.955844, -26.044156) " x="8.45584412" y="8.54415588" width="35" height="35" rx="4"></rect>
            </g>
            <g id="Group" transform="translate(15.000000, 13.000000)" fill="#444" fill-rule="nonzero">
                <path d="M12.5527612,8.47126437 C13.7474721,7.38390805 14.3448276,5.89195402 14.3697174,3.91954023 L14.3697174,2.35172414 L15.6639876,2.35172414 L15.6639876,0.177011494 L0.829660358,0.177011494 L0.829660358,2.37701149 L2.12393052,2.37701149 L2.12393052,3.94482759 C2.14882033,5.91724138 2.74617578,7.4091954 3.9408867,8.49655172 C4.31423386,8.85057471 4.68758102,9.17931034 5.06092818,9.53333333 C5.35960591,9.81149425 5.63339383,10.0643678 5.93207156,10.3425287 C5.93207156,10.3425287 5.95696137,10.3678161 5.95696137,10.3678161 C6.00674099,10.4183908 6.08141042,10.4942529 6.13119004,10.5448276 C6.13119004,10.5448276 6.15607985,10.5701149 6.15607985,10.5701149 C6.20585948,10.6206897 6.23074929,10.6712644 6.28052891,10.7471264 C6.28052891,10.7471264 6.28052891,10.7724138 6.30541872,10.7724138 C6.33030853,10.8229885 6.35519834,10.8735632 6.38008815,10.9494253 C6.38008815,10.9494253 6.38008815,10.9747126 6.38008815,10.9747126 C6.40497796,11.0252874 6.40497796,11.1011494 6.40497796,11.1517241 C6.40497796,11.2022989 6.40497796,11.2781609 6.38008815,11.3287356 C6.38008815,11.3287356 6.38008815,11.354023 6.38008815,11.354023 C6.35519834,11.4045977 6.33030853,11.4551724 6.30541872,11.5310345 C6.30541872,11.5310345 6.30541872,11.5563218 6.28052891,11.5563218 C6.2556391,11.6068966 6.20585948,11.6574713 6.18096967,11.708046 C6.18096967,11.708046 6.15607985,11.7333333 6.15607985,11.7333333 C6.10630023,11.783908 6.05652061,11.8597701 5.98185118,11.9103448 C5.98185118,11.9103448 5.95696137,11.9356322 5.95696137,11.9356322 C5.65828364,12.2137931 5.38449572,12.4666667 5.08581799,12.7448276 C4.71247083,13.0988506 4.33912367,13.4528736 3.96577651,13.7816092 C2.7710656,14.8689655 2.17371014,16.3609195 2.14882033,18.3333333 L2.14882033,19.6735632 L0.829660358,19.6735632 L0.829660358,21.8735632 L15.6639876,21.8735632 L15.6639876,19.6735632 L14.3697174,19.6735632 L14.3697174,18.3333333 C14.3448276,16.3609195 13.7474721,14.8689655 12.5527612,13.7816092 C12.1794141,13.4275862 11.8060669,13.0988506 11.4327197,12.7448276 C11.134042,12.4666667 10.8602541,12.2137931 10.5615764,11.9356322 C10.5366865,11.9356322 10.5366865,11.9103448 10.5117967,11.9103448 C10.4620171,11.8597701 10.3873477,11.8091954 10.3624579,11.7333333 C10.3624579,11.708046 10.3375681,11.708046 10.3375681,11.6827586 C10.2877884,11.6321839 10.2628986,11.5816092 10.2380088,11.5310345 C10.2380088,11.5057471 10.213119,11.5057471 10.213119,11.4804598 C10.1882292,11.4298851 10.1633394,11.3793103 10.1384496,11.3287356 C10.1384496,11.3287356 10.1384496,11.3034483 10.1384496,11.3034483 C10.1135598,11.2528736 10.1135598,11.1770115 10.1135598,11.1264368 C10.1135598,11.0758621 10.1135598,11 10.1384496,10.9494253 C10.1384496,10.9494253 10.1384496,10.9241379 10.1384496,10.9241379 C10.1633394,10.8735632 10.1882292,10.8229885 10.213119,10.7724138 C10.213119,10.7724138 10.213119,10.7471264 10.2380088,10.7471264 C10.2628986,10.6965517 10.3126782,10.645977 10.3624579,10.5954023 C10.3624579,10.5954023 10.3873477,10.5701149 10.3873477,10.5701149 C10.4371273,10.5195402 10.4869069,10.4436782 10.5615764,10.3931034 C10.5615764,10.3931034 10.5864662,10.3678161 10.5864662,10.3678161 C10.8851439,10.0896552 11.1589318,9.83678161 11.4576095,9.55862069 C11.8060669,9.17931034 12.1794141,8.82528736 12.5527612,8.47126437 Z M9.98911071,9.76091954 C9.93933109,9.81149425 9.88955146,9.83678161 9.86466165,9.88735632 C9.86466165,9.88735632 9.86466165,9.88735632 9.83977184,9.91264368 C9.5162043,10.2413793 9.34197563,10.5954023 9.29219601,10.9494253 C9.29219601,10.9494253 9.29219601,10.9494253 9.29219601,10.9494253 C9.29219601,11 9.29219601,11.0505747 9.29219601,11.0758621 C9.29219601,11.1011494 9.29219601,11.1011494 9.29219601,11.1264368 C9.29219601,11.1264368 9.29219601,11.1264368 9.29219601,11.1264368 C9.29219601,11.1264368 9.29219601,11.1264368 9.29219601,11.1264368 C9.29219601,11.1517241 9.29219601,11.1517241 9.29219601,11.1770115 C9.29219601,11.2275862 9.29219601,11.2781609 9.29219601,11.3034483 C9.29219601,11.3034483 9.29219601,11.3034483 9.29219601,11.3034483 C9.34197563,11.6574713 9.5162043,12.0114943 9.83977184,12.3402299 C9.83977184,12.3402299 9.86466165,12.3655172 9.86466165,12.3655172 C9.91444128,12.416092 9.93933109,12.4413793 9.98911071,12.491954 C10.2877884,12.7701149 10.5864662,13.0482759 10.8851439,13.3264368 C11.2584911,13.6804598 11.6318382,14.0344828 12.0300752,14.3632184 C13.0754472,15.3241379 13.5732435,16.5885057 13.5981333,18.3333333 L13.5981333,19.6735632 L2.94529427,19.6735632 L2.94529427,18.3333333 C2.97018408,16.5885057 3.4679803,15.3241379 4.51335235,14.3632184 C4.88669951,14.0091954 5.26004667,13.6551724 5.65828364,13.3264368 C5.95696137,13.0482759 6.2556391,12.7701149 6.55431683,12.491954 C6.60409645,12.4413793 6.65387607,12.416092 6.67876588,12.3655172 C6.67876588,12.3655172 6.67876588,12.3655172 6.70365569,12.3402299 C7.02722323,12.0114943 7.20145191,11.6574713 7.25123153,11.3034483 C7.25123153,11.3034483 7.25123153,11.3034483 7.25123153,11.3034483 C7.25123153,11.2528736 7.25123153,11.2022989 7.25123153,11.1770115 C7.25123153,11.1517241 7.25123153,11.1517241 7.25123153,11.1264368 C7.25123153,11.1264368 7.25123153,11.1264368 7.25123153,11.1264368 C7.25123153,11.1264368 7.25123153,11.1264368 7.25123153,11.1264368 C7.25123153,11.1011494 7.25123153,11.1011494 7.25123153,11.0758621 C7.25123153,11.0252874 7.25123153,10.9747126 7.25123153,10.9494253 C7.25123153,10.9494253 7.25123153,10.9494253 7.25123153,10.9494253 C7.20145191,10.5954023 7.02722323,10.2413793 6.70365569,9.91264368 C6.70365569,9.91264368 6.67876588,9.88735632 6.67876588,9.88735632 C6.62898626,9.83678161 6.60409645,9.81149425 6.55431683,9.76091954 C6.2556391,9.48275862 5.95696137,9.2045977 5.65828364,8.92643678 C5.28493648,8.57241379 4.91158932,8.2183908 4.51335235,7.88965517 C3.4679803,6.92873563 2.97018408,5.66436782 2.94529427,3.91954023 L2.94529427,2.35172414 L13.5981333,2.35172414 L13.5981333,3.89425287 C13.5732435,5.63908046 13.0754472,6.90344828 12.0300752,7.86436782 C11.656728,8.2183908 11.2833809,8.57241379 10.8851439,8.90114943 C10.5864662,9.2045977 10.2877884,9.48275862 9.98911071,9.76091954 Z" id="Shape"></path>
                <path d="M8.24682396,6.6 C6.7285455,6.09425287 5.45916515,6.49885057 4.71247083,6.85287356 C4.81203008,6.97931034 4.93647913,7.10574713 5.06092818,7.23218391 C5.43427534,7.5862069 5.83251232,7.94022989 6.20585948,8.29425287 C6.50453721,8.57241379 6.80321493,8.85057471 7.07700285,9.10344828 C7.15167228,9.15402299 7.20145191,9.22988506 7.25123153,9.28045977 C7.27612134,9.30574713 7.30101115,9.33103448 7.35079077,9.3816092 C7.4254602,9.45747126 7.50012963,9.55862069 7.54990926,9.63448276 C7.54990926,9.63448276 7.57479907,9.65977011 7.57479907,9.65977011 C7.84858698,10.0390805 8.02281566,10.7218391 8.02281566,10.7218391 C8.27171377,11.0505747 8.44594244,10.7218391 8.44594244,10.7218391 C8.44594244,10.7218391 8.44594244,10.7218391 8.44594244,10.7218391 C8.49572206,10.4183908 8.64506093,10.0390805 8.89395904,9.68505747 C8.89395904,9.68505747 8.89395904,9.65977011 8.91884885,9.65977011 C8.99351828,9.58390805 9.0432979,9.48275862 9.11796733,9.40689655 C9.14285714,9.3816092 9.16774695,9.35632184 9.19263676,9.33103448 C9.24241639,9.28045977 9.31708582,9.2045977 9.36686544,9.15402299 C9.66554317,8.87586207 9.9642209,8.59770115 10.2380088,8.34482759 C10.611356,7.9908046 11.0095929,7.63678161 11.3829401,7.28275862 C11.6816178,7.0045977 11.9056261,6.72643678 12.1047446,6.37241379 C10.7855847,7.02988506 10.2380088,7.25747126 8.24682396,6.6 Z" id="Shape"></path>
                <path d="M8.24682396,12.6436782 C8.3463832,12.6436782 8.44594244,12.5931034 8.52061187,12.5172414 C8.59528131,12.4413793 8.64506093,12.3402299 8.64506093,12.2390805 C8.64506093,12.2137931 8.64506093,12.1885057 8.64506093,12.1632184 C8.64506093,12.137931 8.62017112,12.1126437 8.62017112,12.0873563 C8.62017112,12.062069 8.59528131,12.0367816 8.5703915,12.0114943 C8.54550169,11.9862069 8.54550169,11.9609195 8.52061187,11.9609195 C8.37127301,11.8091954 8.09748509,11.8091954 7.97303604,11.9609195 C7.94814623,11.9862069 7.94814623,12.0114943 7.92325642,12.0114943 C7.89836661,12.0367816 7.89836661,12.062069 7.89836661,12.0873563 C7.89836661,12.1126437 7.8734768,12.137931 7.8734768,12.1632184 C7.8734768,12.1885057 7.8734768,12.2137931 7.8734768,12.2390805 C7.8734768,12.3402299 7.92325642,12.4413793 7.99792585,12.5172414 C8.04770547,12.5931034 8.14726471,12.6436782 8.24682396,12.6436782 Z" id="Shape"></path>
                <path d="M7.97303604,13.8068966 C8.04770547,13.8827586 8.14726471,13.9333333 8.24682396,13.9333333 C8.3463832,13.9333333 8.44594244,13.8827586 8.52061187,13.8068966 C8.59528131,13.7310345 8.64506093,13.6298851 8.64506093,13.5287356 C8.64506093,13.5034483 8.64506093,13.4781609 8.64506093,13.4528736 C8.64506093,13.4275862 8.62017112,13.4022989 8.62017112,13.3770115 C8.62017112,13.3517241 8.59528131,13.3264368 8.5703915,13.3011494 C8.54550169,13.2758621 8.54550169,13.2505747 8.52061187,13.2505747 C8.37127301,13.0988506 8.09748509,13.0988506 7.97303604,13.2505747 C7.94814623,13.2758621 7.94814623,13.3011494 7.92325642,13.3011494 C7.89836661,13.3264368 7.89836661,13.3517241 7.89836661,13.3770115 C7.89836661,13.4022989 7.8734768,13.4275862 7.8734768,13.4528736 C7.8734768,13.4781609 7.8734768,13.5034483 7.8734768,13.5287356 C7.84858698,13.6298851 7.89836661,13.7310345 7.97303604,13.8068966 Z" id="Shape"></path>
                <path d="M4.21467462,18.737931 L12.2789733,18.737931 C12.2789733,16.462069 10.4620171,14.6413793 8.24682396,14.6413793 C6.0316308,14.6413793 4.21467462,16.4873563 4.21467462,18.737931 Z" id="Shape"></path>
            </g>
            <g id="Group" transform="translate(24.000000, 10.000000)" fill-rule="nonzero">
                <path d="M5,9.48076923 C2.52533949,9.48076923 0.519230769,7.47466051 0.519230769,5 C0.519230769,2.52533949 2.52533949,0.519230769 5,0.519230769 C7.47466051,0.519230769 9.48076923,2.52533949 9.48076923,5 C9.48076923,7.47466051 7.47466051,9.48076923 5,9.48076923 Z" id="Shape" stroke="#444" stroke-width="0.5" fill="#AF8BBA"></path>
                <path d="M2.46153846,4.76923077 L2.46153846,5.23076923 C2.46153846,5.31573611 2.53041774,5.38461538 2.61538462,5.38461538 L4.53846154,5.38461538 C4.58094498,5.38461538 4.61538462,5.41905502 4.61538462,5.46153846 L4.61538462,7.38461538 C4.61538462,7.46958226 4.68426389,7.53846154 4.76923077,7.53846154 L5.23076923,7.53846154 C5.31573611,7.53846154 5.38461538,7.46958226 5.38461538,7.38461538 L5.38461538,5.46153846 C5.38461538,5.41905502 5.41905502,5.38461538 5.46153846,5.38461538 L7.38461538,5.38461538 C7.46958226,5.38461538 7.53846154,5.31573611 7.53846154,5.23076923 L7.53846154,4.76923077 C7.53846154,4.68426389 7.46958226,4.61538462 7.38461538,4.61538462 L5.46153846,4.61538462 C5.41905502,4.61538462 5.38461538,4.58094498 5.38461538,4.53846154 L5.38461538,2.61538462 C5.38461538,2.53041774 5.31573611,2.46153846 5.23076923,2.46153846 L4.76923077,2.46153846 C4.68426389,2.46153846 4.61538462,2.53041774 4.61538462,2.61538462 L4.61538462,4.53846154 C4.61538462,4.58094498 4.58094498,4.61538462 4.53846154,4.61538462 L2.61538462,4.61538462 C2.53041774,4.61538462 2.46153846,4.68426389 2.46153846,4.76923077 Z" id="Shape" fill="#444"></path>
            </g>
        </g>
    </g>
</svg>
