<?xml version="1.0" encoding="UTF-8"?>
<svg width="48px" height="48px" viewBox="0 0 48 48" version="1.1" xmlns="http://www.w3.org/2000/svg" xmlns:xlink="http://www.w3.org/1999/xlink">
    <defs></defs>
    <g id="icon-delete" stroke="none" stroke-width="1" fill="none" fill-rule="evenodd">
        <path d="M27.1819805,1.72613639 L46.2738636,20.8180195 C48.0312229,22.5753788 48.0312229,25.4246212 46.2738636,27.1819805 L27.1819805,46.2738636 C25.4246212,48.0312229 22.5753788,48.0312229 20.8180195,46.2738636 L1.72613639,27.1819805 C-0.0312229203,25.4246212 -0.0312229203,22.5753788 1.72613639,20.8180195 L20.8180195,1.72613639 C22.5753788,-0.0312229203 25.4246212,-0.0312229203 27.1819805,1.72613639 Z M27.0052038,2.96357326 C25.3454756,1.30384502 22.6545244,1.30384502 20.9947962,2.96357326 L2.96357326,20.9947962 C1.30384502,22.6545244 1.30384502,25.3454756 2.96357326,27.0052038 L20.9947962,45.0364267 C22.6545244,46.696155 25.3454756,46.696155 27.0052038,45.0364267 L45.0364267,27.0052038 C46.696155,25.3454756 46.696155,22.6545244 45.0364267,20.9947962 L27.0052038,2.96357326 Z" id="Combined-Shape" fill="#ffffff"></path>
        <path d="M24.88275,23.82175 L31.42375,17.28075 C31.71675,16.98775 31.71675,16.51275 31.42375,16.21975 C31.13075,15.92675 30.65575,15.92675 30.36275,16.21975 L23.82175,22.76075 L17.28075,16.22075 C16.98775,15.92775 16.51275,15.92775 16.21975,16.22075 C15.92675,16.51375 15.92675,16.98875 16.21975,17.28175 L22.76075,23.82275 L16.22075,30.36275 C15.92775,30.65575 15.92775,31.13075 16.22075,31.42375 C16.36775,31.56975 16.55875,31.64375 16.75075,31.64375 C16.94275,31.64375 17.13475,31.57075 17.28075,31.42375 L23.82175,24.88275 L30.36275,31.42375 C30.50975,31.56975 30.70075,31.64375 30.89275,31.64375 C31.08475,31.64375 31.27675,31.57075 31.42275,31.42375 C31.71575,31.13075 31.71575,30.65575 31.42275,30.36275 L24.88275,23.82175 Z" id="Shape" fill="#ffffff" fill-rule="nonzero"></path>
    </g>
</svg>
