<?xml version="1.0" encoding="UTF-8"?>
<svg width="52px" height="52px" viewBox="0 0 52 52" version="1.1" xmlns="http://www.w3.org/2000/svg" xmlns:xlink="http://www.w3.org/1999/xlink">
  <title>forklist</title>
  <defs>
    <linearGradient x1="0%" y1="100%" x2="100%" y2="0%" id="linearGradient-1">
      <stop offset="0%" style="stop-color:#97B0FF;stop-opacity:1" />
      <stop offset="100%" style="stop-color:#333;stop-opacity:1" />
    </linearGradient>
  </defs>
  <g id="Page-1" stroke="none" stroke-width="1" fill="none" fill-rule="evenodd">
    <g id="fork" transform="translate(1.000000, 1.000000)" fill-rule="nonzero">
      <g id="noun_fork_60030" transform="translate(24.748737, 24.748737) rotate(90.000000) translate(-24.748737, -24.748737) ">
        <rect id="Rectangle-33" stroke="#97B0FF" fill="url(#linearGradient-1)" transform="translate(24.748737, 24.748737) rotate(45.000000) translate(-24.748737, -24.748737) " x="7.24873734" y="7.24873734" width="35" height="35" rx="4"></rect>
        <g id="noun_fork_60030-copy-2" transform="translate(13.000000, 12.497475)" fill="#ffffff">
          <path d="M18.54,2.85 L24,6 L18.54,9.15 L18.54,7.5 L18,7.5 C15.69,7.5 14.55,8.64 13.11,10.05 C12.45,10.71 11.73,11.43 10.83,12.03 C11.64,12.6 12.33,13.29 12.99,13.92 C14.39875,15.3 15.5319792,16.4044792 17.7098915,16.4941233 L18,16.5 L18.54,16.5 L18.54,14.85 L24,18 L18.54,21.15 L18.54,19.5 L18,19.5 C14.4,19.5 12.45,17.58 10.89,16.05 C10.0856923,15.2624487 9.37497704,14.5591306 8.50170293,14.0916454 L8.50081732,9.93957451 C9.4262588,9.4694162 10.1690375,8.7438 11.01,7.92 C12.576,6.354 14.3382333,4.6198 17.6516444,4.50592667 L18,4.5 L18.54,4.5 L18.54,2.85 Z M6.75,4 C7.16421356,4 7.5,4.33578644 7.5,4.75 L7.5,19.25 C7.5,19.6642136 7.16421356,20 6.75,20 C6.33578644,20 6,19.6642136 6,19.25 L6,4.75 C6,4.33578644 6.33578644,4 6.75,4 Z M3.75,4 C4.16421356,4 4.5,4.33578644 4.5,4.75 L4.5,19.25 C4.5,19.6642136 4.16421356,20 3.75,20 C3.33578644,20 3,19.6642136 3,19.25 L3,4.75 C3,4.33578644 3.33578644,4 3.75,4 Z M0.75,4 C1.16421356,4 1.5,4.33578644 1.5,4.75 L1.5,19.25 C1.5,19.6642136 1.16421356,20 0.75,20 C0.335786438,20 -3.47438424e-16,19.6642136 -3.98164955e-16,19.25 L4.89703974e-16,4.75 C4.38977443e-16,4.33578644 0.335786438,4 0.75,4 Z" id="Combined-Shape"></path>
        </g>
      </g>
    </g>
  </g>
</svg>
