<?xml version="1.0" encoding="UTF-8"?>
<svg width="48px" height="48px" viewBox="0 0 48 48" version="1.1" xmlns="http://www.w3.org/2000/svg" xmlns:xlink="http://www.w3.org/1999/xlink">
    <!-- Generator: Sketch 50.2 (55047) - http://www.bohemiancoding.com/sketch -->
    <title>icon-fork</title>
    <desc>Created with Sketch.</desc>
    <defs></defs>
    <g id="icon-fork" stroke="none" stroke-width="1" fill="none" fill-rule="evenodd">
        <g id="merge_ico" fill="#333333">
            <path d="M26.7738636,1.31801948 L45.8657467,20.4099026 C47.623106,22.1672619 47.623106,25.0165043 45.8657467,26.7738636 L26.7738636,45.8657467 C25.0165043,47.623106 22.1672619,47.623106 20.4099026,45.8657467 L1.31801948,26.7738636 C-0.439339828,25.0165043 -0.439339828,22.1672619 1.31801948,20.4099026 L20.4099026,1.31801948 C22.1672619,-0.439339828 25.0165043,-0.439339828 26.7738636,1.31801948 Z M26.5970869,2.55545635 C24.9373587,0.895728112 22.2464075,0.895728112 20.5866793,2.55545635 L2.55545635,20.5866793 C0.895728112,22.2464075 0.895728112,24.9373587 2.55545635,26.5970869 L20.5866793,44.6283098 C22.2464075,46.2880381 24.9373587,46.2880381 26.5970869,44.6283098 L44.6283098,26.5970869 C46.2880381,24.9373587 46.2880381,22.2464075 44.6283098,20.5866793 L26.5970869,2.55545635 Z" id="Combined-Shape"></path>
        </g>
        <g id="noun_fork_60030" transform="translate(24.000000, 24.000000) rotate(90.000000) translate(-24.000000, -24.000000) translate(12.000000, 12.000000)" fill="#333333" fill-rule="nonzero">
            <path d="M18.54,16.5 L18,16.5 C15.63,16.5 14.46,15.36 12.99,13.92 C12.33,13.29 11.64,12.6 10.83,12.03 C11.73,11.43 12.45,10.71 13.11,10.05 C14.55,8.64 15.69,7.5 18,7.5 L18.54,7.5 L18.54,9.15 L24,6 L18.54,2.85 L18.54,4.5 L18,4.5 C14.46,4.5 12.63,6.3 11.01,7.92 C9.54,9.36 8.37,10.5 6,10.5 L5.61,10.5 L0.15,10.5 L0.15,13.5 L5.61,13.5 L6,13.5 C8.31,13.5 9.45,14.64 10.89,16.05 C12.45,17.58 14.4,19.5 18,19.5 L18.54,19.5 L18.54,21.15 L24,18 L18.54,14.85 L18.54,16.5 Z" id="Shape"></path>
        </g>
    </g>
</svg>