<svg xmlns="http://www.w3.org/2000/svg" width="24" height="24" viewBox="0 0 24 24">
  <g fill="none" fill-rule="evenodd">
    <path fill="#FFF" d="M14.7070312,7.5 L14.7070312,7.8046875 C14.2812479,7.83593766 13.9941414,7.91210877 13.8457031,8.03320312 C13.6972649,8.15429748 13.6230469,8.4453102 13.6230469,8.90625 L13.6230469,14.0800781 C13.6230469,14.9316449 13.3925804,15.5937476 12.9316406,16.0664062 C12.4667946,16.5429711 11.8144573,16.78125 10.9746094,16.78125 C10.3808564,16.78125 9.90332212,16.6210954 9.54199219,16.3007812 C9.18066226,15.9804671 9,15.6367206 9,15.2695312 C9,14.9726548 9.08691319,14.7402352 9.26074219,14.5722656 C9.43457118,14.404296 9.6386707,14.3203125 9.87304688,14.3203125 C10.107423,14.3203125 10.3007805,14.4023429 10.453125,14.5664062 C10.6054695,14.7304696 10.6816406,14.9257801 10.6816406,15.1523438 C10.6816406,15.3476572 10.6337895,15.5332022 10.5380859,15.7089844 C10.4423823,15.8847665 10.3945312,15.9882811 10.3945312,16.0195312 C10.3945312,16.1367193 10.4404292,16.2255856 10.5322266,16.2861328 C10.6240239,16.34668 10.7363275,16.3769531 10.8691406,16.3769531 C11.2285174,16.3769531 11.4687494,16.2597668 11.5898438,16.0253906 C11.6562503,15.8847649 11.6894531,15.6503923 11.6894531,15.3222656 L11.6894531,8.65429688 C11.6894531,8.29101381 11.5703137,8.05078184 11.3320312,7.93359375 C11.1874993,7.8632809 10.904299,7.82031258 10.4824219,7.8046875 L10.4824219,7.5 L14.7070312,7.5 Z"/>
    <path stroke="#FFF" stroke-linecap="round" stroke-linejoin="round" stroke-width="1.4" d="M10.9393398,21.9393398 L2.06066017,13.0606602 C1.47487373,12.4748737 1.47487373,11.5251263 2.06066017,10.9393398 L10.9393398,2.06066017 C11.5251263,1.47487373 12.4748737,1.47487373 13.0606602,2.06066017 L21.9393398,10.9393398 C22.5251263,11.5251263 22.5251263,12.4748737 21.9393398,13.0606602 L13.0606602,21.9393398 C12.4748737,22.5251263 11.5251263,22.5251263 10.9393398,21.9393398 Z"/>
  </g>
</svg>
