<?xml version="1.0" encoding="UTF-8"?>
<svg width="50px" height="50px" viewBox="0 0 50 50" version="1.1" xmlns="http://www.w3.org/2000/svg" xmlns:xlink="http://www.w3.org/1999/xlink">
    <title>openlock</title>
    <defs>
        <linearGradient x1="0%" y1="100%" x2="100%" y2="0%" id="linearGradient-1">
            <stop stop-color="#d4baff" offset="0%"></stop>
            <stop stop-color="#FFFFFF" offset="100%"></stop>
        </linearGradient>
    </defs>
    <g id="openlock" stroke="none" stroke-width="1" fill="none" fill-rule="evenodd">
        <g fill-rule="nonzero">
            <g id="noun_fork_60030" transform="translate(25.000000, 25.000000) rotate(90.000000) translate(-25.000000, -25.000000) ">
                <rect id="Rectangle-33" stroke="#d4baff" fill="url(#linearGradient-1)" transform="translate(24.955844, 25.044156) rotate(45.000000) translate(-24.955844, -25.044156) " x="7.45584417" y="7.544156" width="35" height="35" rx="4"></rect>
                <g id="Group" transform="translate(25.000000, 25.000000) rotate(-90.000000) translate(-25.000000, -25.000000) translate(13.000000, 13.000000)" fill="#333333">
                    <path d="M12,1.5 C14.7273287,1.5 17.0094053,3.13098933 17.5864163,5.31512764 C17.08783,5.60061864 16.4844995,5.65550598 15.9379167,5.45512365 C15.4565605,3.98001796 13.8757001,2.9 12,2.9 C9.74065332,2.9 7.90909095,4.46700338 7.90909095,6.4 L7.90909095,6.4 L7.90909095,8.5 L14.9999999,8.499 L15,8.5 L17.7269999,8.561 C19.5642353,8.89080629 20.9019887,10.235545 20.9948437,11.8226924 L21,12 L21,19 C21,20.9329966 19.1684375,22.5 16.9090909,22.5 L16.9090909,22.5 L7.09090914,22.5 C4.83156246,22.5 3,20.9329966 3,19 L3,19 L3,12 C2.99960326,10.3365598 4.36772903,8.90268801 6.27272733,8.57 L6.27272733,8.57 L6.27272733,6.4 C6.27272733,3.69380473 8.83691464,1.5 12,1.5 Z M16.9090909,9.9 L7.09090914,9.9 C5.73530113,9.9 4.63636371,10.840202 4.63636371,12 L4.63636371,12 L4.63636371,19 C4.63636371,20.159798 5.73530113,21.1 7.09090914,21.1 L7.09090914,21.1 L16.9090909,21.1 C18.2646989,21.1 19.3636363,20.159798 19.3636363,19 L19.3636363,19 L19.3636363,12 C19.3636363,10.840202 18.2646989,9.9 16.9090909,9.9 L16.9090909,9.9 Z M12.1789153,12.7026676 C13.0109567,12.7809635 13.6397863,13.3838555 13.6363775,14.1 C13.6334866,14.7011593 13.1823449,15.2336383 12.5154545,15.423 L13.1209091,16.97 C13.2780182,17.3852102 13.1049688,17.8397604 12.6921755,18.096158 C12.2793823,18.3525555 11.7206177,18.3525555 11.3078245,18.096158 C10.8950312,17.8397604 10.7219818,17.3852102 10.8790909,16.97 L11.4845455,15.423 C10.690102,15.1974066 10.2227376,14.4952412 10.4013274,13.7955801 C10.5799172,13.095919 11.3468739,12.6243718 12.1789153,12.7026676 Z" id="Combined-Shape"></path>
                </g>
            </g>
        </g>
    </g>
</svg>
