<?xml version="1.0" encoding="UTF-8"?>
<svg width="52px" height="52px" viewBox="0 0 52 52" version="1.1" xmlns="http://www.w3.org/2000/svg" xmlns:xlink="http://www.w3.org/1999/xlink">
    <title>merge</title>
    <defs>
        <linearGradient x1="0%" y1="100%" x2="100%" y2="0%" id="linearGradient-1">
            <stop stop-color="#97B0FF" offset="0%"></stop>
            <stop stop-color="#FFFFFF" offset="100%"></stop>
        </linearGradient>
    </defs>
    <g id="Page-1" stroke="none" stroke-width="1" fill="none" fill-rule="evenodd">
        <g id="merge" transform="translate(1.000000, 1.000000)">
            <g id="noun_fork_60030" transform="translate(24.748737, 24.748737) rotate(90.000000) translate(-24.748737, -24.748737) " fill="url(#linearGradient-1)" fill-rule="nonzero" stroke="#97B0FF">
                <rect id="Rectangle-33" transform="translate(24.748737, 24.748737) rotate(45.000000) translate(-24.748737, -24.748737) " x="7.24873734" y="7.24873734" width="35" height="35" rx="4"></rect>
            </g>
            <g id="noun_fork_60030-copy-2" transform="translate(25.000000, 25.000000) scale(1, -1) rotate(90.000000) translate(-25.000000, -25.000000) translate(13.000000, 13.000000)" fill="#333333">
                <path d="M23.79,4.5 L23.79,7.5 L23.25,7.5 C20.94,7.5 19.8,8.64 18.36,10.05 C17.7,10.71 16.98,11.43 16.08,12.03 C16.89,12.6 17.58,13.29 18.24,13.92 C19.71,15.36 20.88,16.5 23.25,16.5 L23.25,16.5 L23.79,16.5 L23.79,19.5 L23.25,19.5 C19.65,19.5 17.7,17.58 16.14,16.05 C15.5766667,15.4984028 15.0592454,14.9881264 14.4997275,14.5712579 L14.4995262,9.48221771 C15.1048583,9.05053792 15.6572063,8.5104918 16.26,7.92 C17.88,6.3 19.71,4.5 23.25,4.5 L23.25,4.5 L23.79,4.5 Z M5.999,13.5 L5.4,13.5 L5.4,10.5 L5.999,10.5 L5.999,13.5 Z" id="Combined-Shape" fill-rule="nonzero"></path>
                <path d="M17.5,14.25 C17.9142136,14.25 18.25,14.5857864 18.25,15 C18.25,15.4142136 17.9142136,15.75 17.5,15.75 L3,15.75 C2.58578644,15.75 2.25,15.4142136 2.25,15 C2.25,14.5857864 2.58578644,14.25 3,14.25 L17.5,14.25 Z M17.5,11.25 C17.9142136,11.25 18.25,11.5857864 18.25,12 C18.25,12.4142136 17.9142136,12.75 17.5,12.75 L3,12.75 C2.58578644,12.75 2.25,12.4142136 2.25,12 C2.25,11.5857864 2.58578644,11.25 3,11.25 L17.5,11.25 Z M17.5,8.25 C17.9142136,8.25 18.25,8.58578644 18.25,9 C18.25,9.41421356 17.9142136,9.75 17.5,9.75 L3,9.75 C2.58578644,9.75 2.25,9.41421356 2.25,9 C2.25,8.58578644 2.58578644,8.25 3,8.25 L17.5,8.25 Z" id="Combined-Shape" transform="translate(10.250000, 12.000000) rotate(90.000000) translate(-10.250000, -12.000000) "></path>
                <polygon id="Shape" fill-rule="nonzero" transform="translate(4.140452, 11.310751) rotate(-60.000000) translate(-4.140452, -11.310751) " points="1.41045183 12.8107506 1.41045183 14.4607506 6.87045183 11.3107506 1.41045183 8.16075065 1.41045183 9.81075065"></polygon>
            </g>
        </g>
    </g>
</svg>