<?xml version="1.0" encoding="UTF-8"?>
<svg width="48px" height="48px" viewBox="0 0 48 48" version="1.1" xmlns="http://www.w3.org/2000/svg" xmlns:xlink="http://www.w3.org/1999/xlink">
    <!-- Generator: Sketch 50.2 (55047) - http://www.bohemiancoding.com/sketch -->
    <title>icon-merge</title>
    <desc>Created with Sketch.</desc>
    <defs></defs>
    <g id="icon-merge" stroke="none" stroke-width="1" fill="none" fill-rule="evenodd">
        <g id="fork_ico" fill="#333333">
            <path d="M26.7738636,1.31801948 L45.8657467,20.4099026 C47.623106,22.1672619 47.623106,25.0165043 45.8657467,26.7738636 L26.7738636,45.8657467 C25.0165043,47.623106 22.1672619,47.623106 20.4099026,45.8657467 L1.31801948,26.7738636 C-0.439339828,25.0165043 -0.439339828,22.1672619 1.31801948,20.4099026 L20.4099026,1.31801948 C22.1672619,-0.439339828 25.0165043,-0.439339828 26.7738636,1.31801948 Z M26.5970869,2.55545635 C24.9373587,0.895728112 22.2464075,0.895728112 20.5866793,2.55545635 L2.55545635,20.5866793 C0.895728112,22.2464075 0.895728112,24.9373587 2.55545635,26.5970869 L20.5866793,44.6283098 C22.2464075,46.2880381 24.9373587,46.2880381 26.5970869,44.6283098 L44.6283098,26.5970869 C46.2880381,24.9373587 46.2880381,22.2464075 44.6283098,20.5866793 L26.5970869,2.55545635 Z" id="Combined-Shape"></path>
        </g>
        <g id="noun_fork_60030-copy" transform="translate(24.000000, 24.000000) rotate(90.000000) translate(-24.000000, -24.000000) translate(12.000000, 12.000000)" fill="#333333" fill-rule="nonzero">
            <path d="M23.79,16.5 L23.25,16.5 C20.88,16.5 19.71,15.36 18.24,13.92 C17.58,13.29 16.89,12.6 16.08,12.03 C16.98,11.43 17.7,10.71 18.36,10.05 C19.8,8.64 20.94,7.5 23.25,7.5 L23.79,7.5 L23.79,4.5 L23.25,4.5 C19.71,4.5 17.88,6.3 16.26,7.92 C14.79,9.36 13.62,10.5 11.25,10.5 L10.86,10.5 L5.4,10.5 L5.4,13.5 L10.86,13.5 L11.25,13.5 C13.56,13.5 14.7,14.64 16.14,16.05 C17.7,17.58 19.65,19.5 23.25,19.5 L23.79,19.5 L23.79,16.5 Z" id="Shape"></path>
            <polygon id="Shape" transform="translate(4.140452, 11.310751) rotate(-60.000000) translate(-4.140452, -11.310751) " points="1.41045183 12.8107506 1.41045183 14.4607506 6.87045183 11.3107506 1.41045183 8.16075065 1.41045183 9.81075065"></polygon>
        </g>
    </g>
</svg>