<?xml version="1.0" encoding="UTF-8"?>
<svg width="48px" height="48px" viewBox="0 0 48 48" version="1.1" xmlns="http://www.w3.org/2000/svg" xmlns:xlink="http://www.w3.org/1999/xlink">
  <defs>
    <linearGradient id="grad2"  y1="100%" x2="100%" y2="0%">
      <stop offset="0%" style="stop-color:#FFEE73;stop-opacity:1" />
      <stop offset="100%" style="stop-color:#fff;stop-opacity:1" />
    </linearGradient>
  </defs>
    <g id="Page-1-Copy" stroke="none" stroke-width="1" fill="none" fill-rule="evenodd">
        <g id="icon-merge">
            <g id="noun_fork_60030" transform="translate(24.000000, 24.000000) rotate(90.000000) translate(-24.000000, -24.000000) translate(-2.000000, -2.000000)" fill="url(#grad2)" stroke="#FFEE73">
                <rect id="Rectangle-33" transform="translate(25.955844, 26.044156) rotate(45.000000) translate(-25.955844, -26.044156) " x="8.45584412" y="8.54415588" width="35" height="35" rx="4"></rect>
            </g>
            <g id="noun_fork_60030-copy" transform="translate(24.000000, 24.000000) rotate(90.000000) translate(-24.000000, -24.000000) translate(12.000000, 12.000000)" fill="#50514f" fill-rule="nonzero">
                <path d="M23.79,16.5 L23.25,16.5 C20.88,16.5 19.71,15.36 18.24,13.92 C17.58,13.29 16.89,12.6 16.08,12.03 C16.98,11.43 17.7,10.71 18.36,10.05 C19.8,8.64 20.94,7.5 23.25,7.5 L23.79,7.5 L23.79,4.5 L23.25,4.5 C19.71,4.5 17.88,6.3 16.26,7.92 C14.79,9.36 13.62,10.5 11.25,10.5 L10.86,10.5 L5.4,10.5 L5.4,13.5 L10.86,13.5 L11.25,13.5 C13.56,13.5 14.7,14.64 16.14,16.05 C17.7,17.58 19.65,19.5 23.25,19.5 L23.79,19.5 L23.79,16.5 Z" id="Shape"></path>
                <polygon id="Shape" transform="translate(4.140452, 11.310751) rotate(-60.000000) translate(-4.140452, -11.310751) " points="1.41045183 12.8107506 1.41045183 14.4607506 6.87045183 11.3107506 1.41045183 8.16075065 1.41045183 9.81075065"></polygon>
            </g>
        </g>
    </g>
</svg>
