<?xml version="1.0" encoding="UTF-8"?>
<svg width="24px" height="24px" viewBox="0 0 24 24" version="1.1" xmlns="http://www.w3.org/2000/svg" xmlns:xlink="http://www.w3.org/1999/xlink">
    <title>prompt_ico</title>
    <g id="prompt_ico" stroke="none" stroke-width="1" fill="none" fill-rule="evenodd">
        <g id="finish" transform="translate(0.000000, 0.000000)" stroke="#333333" stroke-width="0.5">
            <path d="M5.43471863,3.51471863 L18.5652814,3.51471863 C19.6256681,3.51471863 20.4852814,4.37433191 20.4852814,5.43471863 L20.4852814,18.5652814 C20.4852814,19.6256681 19.6256681,20.4852814 18.5652814,20.4852814 L5.43471863,20.4852814 C4.37433191,20.4852814 3.51471863,19.6256681 3.51471863,18.5652814 L3.51471863,5.43471863 C3.51471863,4.37433191 4.37433191,3.51471863 5.43471863,3.51471863 Z" id="Rectangle" transform="translate(12.000000, 12.000000) rotate(45.000000) translate(-12.000000, -12.000000) "></path>
        </g>
        <path d="M12.2944336,14.0712891 C12.2944336,13.5380859 12.3547363,13.1350098 12.4753418,12.8620605 C12.5959473,12.5891113 12.859375,12.2558594 13.265625,11.8623047 C13.8242188,11.320638 14.1955566,10.9101562 14.3796387,10.6308594 C14.5637207,10.3515625 14.6557617,9.98763021 14.6557617,9.5390625 C14.6557617,8.7985026 14.4050293,8.19018555 13.9035645,7.71411133 C13.4020996,7.23803711 12.7345378,7 11.9008789,7 C10.9995117,7 10.2906901,7.27823893 9.77441406,7.8347168 C9.25813802,8.39119466 9,9.12646484 9,10.0405273 L9,10.0405273 L10.1298828,10.0405273 C10.1510417,9.49039714 10.237793,9.06933594 10.3901367,8.77734375 C10.6609701,8.25260417 11.1497396,7.99023438 11.8564453,7.99023438 C12.4277344,7.99023438 12.8371582,8.14257812 13.0847168,8.44726562 C13.3322754,8.75195312 13.4560547,9.11165365 13.4560547,9.52636719 C13.4560547,9.82259115 13.3714193,10.1082357 13.2021484,10.3833008 C13.1090495,10.5398763 12.9863281,10.6901042 12.8339844,10.8339844 L12.8339844,10.8339844 L12.3261719,11.3354492 C11.8395182,11.8136393 11.5242513,12.2378743 11.3803711,12.6081543 C11.2364909,12.9784342 11.1645508,13.4661458 11.1645508,14.0712891 L11.1645508,14.0712891 L12.2944336,14.0712891 Z M12.4023438,16.4453125 L12.4023438,15.125 L11.1391602,15.125 L11.1391602,16.4453125 L12.4023438,16.4453125 Z" id="?" fill="#333333" fill-rule="nonzero"></path>
    </g>
</svg>