<?xml version="1.0" encoding="UTF-8"?>
<svg width="48px" height="48px" viewBox="0 0 48 48" version="1.1" xmlns="http://www.w3.org/2000/svg" xmlns:xlink="http://www.w3.org/1999/xlink">
    <defs></defs>
    <g id="Page-1-Copy" stroke="none" stroke-width="1" fill="none" fill-rule="evenodd">
        <g id="icon-delete">
            <g id="noun_fork_60030" transform="translate(24.000000, 24.000000) rotate(90.000000) translate(-24.000000, -24.000000) translate(-2.000000, -2.000000)" stroke="#333333">
                <rect id="Rectangle-33" transform="translate(25.955844, 26.044156) rotate(45.000000) translate(-25.955844, -26.044156) " x="8.45584412" y="8.54415588" width="35" height="35" rx="4"></rect>
            </g>
            <path d="M24.88275,23.82175 L31.42375,17.28075 C31.71675,16.98775 31.71675,16.51275 31.42375,16.21975 C31.13075,15.92675 30.65575,15.92675 30.36275,16.21975 L23.82175,22.76075 L17.28075,16.22075 C16.98775,15.92775 16.51275,15.92775 16.21975,16.22075 C15.92675,16.51375 15.92675,16.98875 16.21975,17.28175 L22.76075,23.82275 L16.22075,30.36275 C15.92775,30.65575 15.92775,31.13075 16.22075,31.42375 C16.36775,31.56975 16.55875,31.64375 16.75075,31.64375 C16.94275,31.64375 17.13475,31.57075 17.28075,31.42375 L23.82175,24.88275 L30.36275,31.42375 C30.50975,31.56975 30.70075,31.64375 30.89275,31.64375 C31.08475,31.64375 31.27675,31.57075 31.42275,31.42375 C31.71575,31.13075 31.71575,30.65575 31.42275,30.36275 L24.88275,23.82175 Z" id="Shape" fill="#333333" fill-rule="nonzero"></path>
        </g>
    </g>
</svg>
